<svg viewBox="0 0 64 64" fill="none" xmlns="http://www.w3.org/2000/svg"><path d="M64 32c0 17.673-14.327 32-32 32C14.327 64 0 49.673 0 32 0 14.327 14.327 0 32 0c17.673 0 32 14.327 32 32z" fill="#6039FF"/><path fill-rule="evenodd" clip-rule="evenodd" d="M38.005 11.785c-3.326-3.274-8.72-3.274-12.045 0l-8.504 8.37a19.997 19.997 0 000 28.597c8.023 7.896 21.03 7.896 29.052 0a19.997 19.997 0 000-28.597l-8.503-8.37zm-3.526 13.829c.966 1.039 2.223 1.454 2.808.928.586-.527.278-1.797-.687-2.836-.966-1.04-2.223-1.454-2.808-.928-.586.527-.278 1.797.688 2.836zm5.67 3.917c-.382.345-1.204.073-1.835-.607-.631-.68-.833-1.51-.45-1.854.383-.345 1.205-.073 1.836.607.631.68.833 1.51.45 1.854zm-6.404-11.728a2.65 2.65 0 00-3.56 0l-7.807 7.118a2.569 2.569 0 00-.774 1.32l-2.358 10.214a2.53 2.53 0 00.02 1.228c.005.297.062.6.179.896l1.678 4.266a2.59 2.59 0 001.192 1.334l8.4 4.494c.78.417 1.722.417 2.501 0l8.401-4.495a2.59 2.59 0 001.192-1.333l1.678-4.266c.118-.299.175-.604.178-.903.104-.388.116-.805.02-1.221L42.326 26.24a2.569 2.569 0 00-.774-1.32l-7.807-7.118z" fill="#fff"/></svg>
